<svg width="821" height="50" viewBox="0 0 821 50" fill="none" xmlns="http://www.w3.org/2000/svg">
<path d="M7.86235 38.2591H0V4.7548H7.86235V18.3352H20.9514V4.7548H28.8137V38.2591H20.9514V25.2148H7.86235V38.2591Z" fill="#A3A0A0"/>
<path d="M44.6278 38.7059C42.2899 38.7059 40.2052 38.207 38.3736 37.2093C36.5569 36.1968 35.1274 34.8194 34.0851 33.0771C33.0427 31.32 32.5215 29.3246 32.5215 27.091C32.5215 24.8574 33.0427 22.8695 34.0851 21.1273C35.1274 19.3701 36.5569 17.9927 38.3736 16.9951C40.2052 15.9825 42.2899 15.4762 44.6278 15.4762C46.9358 15.4762 48.9908 15.9825 50.7926 16.9951C52.6092 17.9927 54.0313 19.3701 55.0588 21.1273C56.1011 22.8695 56.6223 24.8574 56.6223 27.091C56.6223 29.3246 56.1011 31.32 55.0588 33.0771C54.0313 34.8194 52.6092 36.1968 50.7926 37.2093C48.9908 38.207 46.9358 38.7059 44.6278 38.7059ZM44.5831 32.139C45.4468 32.139 46.2211 31.9231 46.9061 31.4913C47.591 31.0594 48.1271 30.4563 48.5143 29.682C48.9163 28.9077 49.1173 28.0291 49.1173 27.0463C49.1173 26.0933 48.9163 25.2371 48.5143 24.4777C48.1271 23.7183 47.591 23.1226 46.9061 22.6908C46.2211 22.259 45.4468 22.043 44.5831 22.043C43.7045 22.043 42.9228 22.259 42.2378 22.6908C41.5528 23.1226 41.0093 23.7183 40.6072 24.4777C40.2201 25.2371 40.0265 26.0933 40.0265 27.0463C40.0265 28.0291 40.2201 28.9077 40.6072 29.682C41.0093 30.4563 41.5528 31.0594 42.2378 31.4913C42.9228 31.9231 43.7045 32.139 44.5831 32.139Z" fill="#A3A0A0"/>
<path d="M88.4068 38.2591H80.053L76.9706 25.5722L73.8882 38.2591H65.5345L58.2975 15.9229H66.0482L69.5997 30.7318L73.7989 15.9229H80.1424L84.3416 30.7988L87.893 15.9229H95.6437L88.4068 38.2591Z" fill="#A3A0A0"/>
<path d="M145.319 38.2591H137.993V27.2697C137.993 25.6019 137.68 24.3139 137.055 23.4055C136.43 22.4823 135.536 22.0207 134.375 22.0207C133.198 22.0207 132.283 22.4823 131.627 23.4055C130.972 24.3288 130.645 25.6168 130.645 27.2697V38.2591H123.318V27.2697C123.318 25.6019 123.006 24.3139 122.38 23.4055C121.755 22.4823 120.861 22.0207 119.7 22.0207C118.523 22.0207 117.608 22.4823 116.952 23.4055C116.297 24.3288 115.97 25.6168 115.97 27.2697V38.2591H108.643V15.9229H114.451L114.696 19.519C115.456 18.1938 116.454 17.1886 117.69 16.5037C118.94 15.8187 120.392 15.4762 122.045 15.4762C123.728 15.4762 125.187 15.8261 126.423 16.526C127.674 17.211 128.649 18.2012 129.349 19.4967C130.108 18.1863 131.106 17.1886 132.342 16.5037C133.578 15.8187 135.03 15.4762 136.698 15.4762C139.408 15.4762 141.522 16.3399 143.041 18.0672C144.56 19.7945 145.319 22.1994 145.319 25.2818V38.2591Z" fill="#A3A0A0"/>
<path d="M171.9 38.2591H166.047L165.802 34.6853C165.027 35.9957 163.993 36.9934 162.697 37.6784C161.402 38.3634 159.89 38.7059 158.163 38.7059C155.348 38.7059 153.145 37.8347 151.551 36.0925C149.958 34.3503 149.161 31.9454 149.161 28.8779V15.9229H156.488V27.024C156.488 28.6471 156.837 29.9054 157.537 30.7988C158.237 31.6923 159.205 32.139 160.441 32.139C161.737 32.139 162.749 31.6774 163.479 30.7542C164.208 29.8309 164.573 28.5578 164.573 26.9347V15.9229H171.9V38.2591Z" fill="#A3A0A0"/>
<path d="M197.072 34.596C195.985 35.8766 194.638 36.8817 193.03 37.6114C191.421 38.341 189.642 38.7059 187.691 38.7059C185.368 38.7059 183.291 38.207 181.459 37.2093C179.643 36.1968 178.213 34.8194 177.171 33.0771C176.129 31.32 175.607 29.3246 175.607 27.091C175.607 24.8574 176.129 22.8695 177.171 21.1273C178.213 19.3701 179.643 17.9927 181.459 16.9951C183.291 15.9825 185.368 15.4762 187.691 15.4762C189.627 15.4762 191.392 15.841 192.985 16.5707C194.593 17.2854 195.941 18.2682 197.028 19.519L192.739 24.0533C192.218 23.4279 191.548 22.9365 190.729 22.5791C189.925 22.2217 189.084 22.043 188.205 22.043C187.222 22.043 186.344 22.259 185.569 22.6908C184.81 23.1077 184.207 23.6959 183.76 24.4553C183.328 25.2148 183.112 26.0784 183.112 27.0463C183.112 28.044 183.328 28.93 183.76 29.7044C184.207 30.4638 184.81 31.0594 185.569 31.4913C186.344 31.9231 187.222 32.139 188.205 32.139C189.084 32.139 189.932 31.9603 190.751 31.6029C191.57 31.2456 192.233 30.7542 192.739 30.1287L197.072 34.596Z" fill="#A3A0A0"/>
<path d="M200.624 38.2591V4.7548H207.95V18.3129C209.544 16.4218 211.747 15.4762 214.562 15.4762C217.331 15.4762 219.491 16.3399 221.039 18.0672C222.588 19.7945 223.362 22.1994 223.362 25.2818V38.2591H216.036V27.2697C216.036 25.6019 215.686 24.3139 214.986 23.4055C214.301 22.4823 213.326 22.0207 212.06 22.0207C210.765 22.0207 209.752 22.4823 209.022 23.4055C208.308 24.3288 207.95 25.6168 207.95 27.2697V38.2591H200.624Z" fill="#A3A0A0"/>
<path d="M258.184 34.596C257.097 35.8766 255.75 36.8817 254.141 37.6114C252.533 38.341 250.754 38.7059 248.803 38.7059C246.48 38.7059 244.403 38.207 242.571 37.2093C240.755 36.1968 239.325 34.8194 238.283 33.0771C237.24 31.32 236.719 29.3246 236.719 27.091C236.719 24.8574 237.24 22.8695 238.283 21.1273C239.325 19.3701 240.755 17.9927 242.571 16.9951C244.403 15.9825 246.48 15.4762 248.803 15.4762C250.739 15.4762 252.504 15.841 254.097 16.5707C255.705 17.2854 257.053 18.2682 258.14 19.519L253.851 24.0533C253.33 23.4279 252.66 22.9365 251.841 22.5791C251.037 22.2217 250.195 22.043 249.317 22.043C248.334 22.043 247.456 22.259 246.681 22.6908C245.922 23.1077 245.319 23.6959 244.872 24.4553C244.44 25.2148 244.224 26.0784 244.224 27.0463C244.224 28.044 244.44 28.93 244.872 29.7044C245.319 30.4638 245.922 31.0594 246.681 31.4913C247.456 31.9231 248.334 32.139 249.317 32.139C250.195 32.139 251.044 31.9603 251.863 31.6029C252.682 31.2456 253.345 30.7542 253.851 30.1287L258.184 34.596Z" fill="#A3A0A0"/>
<path d="M282.307 38.2591H275.897L275.517 35.7128C274.698 36.6658 273.701 37.4029 272.524 37.9241C271.348 38.4453 270.052 38.7059 268.638 38.7059C267.089 38.7059 265.712 38.408 264.505 37.8124C263.299 37.2168 262.346 36.3978 261.646 35.3554C260.961 34.2982 260.619 33.0995 260.619 31.7593C260.619 30.3447 260.991 29.1013 261.736 28.0291C262.495 26.957 263.538 26.1157 264.863 25.5051C266.188 24.8946 267.7 24.5894 269.397 24.5894C270.365 24.5894 271.318 24.6936 272.256 24.9021C273.209 25.1105 274.118 25.4009 274.981 25.7732V25.3041C274.981 24.5149 274.743 23.8299 274.266 23.2492C273.79 22.6684 273.142 22.2143 272.323 21.8867C271.504 21.5442 270.574 21.3729 269.531 21.3729C268.504 21.3729 267.506 21.5367 266.538 21.8643C265.57 22.1771 264.684 22.6312 263.88 23.2269L261.959 17.7545C263.538 16.9951 265.109 16.4292 266.672 16.0569C268.251 15.6698 269.769 15.4762 271.229 15.4762C273.477 15.4762 275.428 15.9155 277.081 16.794C278.749 17.6726 280.037 18.916 280.945 20.5242C281.853 22.1175 282.307 24.0086 282.307 26.1976V38.2591ZM270.291 33.2335C271.05 33.2335 271.78 33.0697 272.48 32.7421C273.194 32.3996 273.775 31.9529 274.222 31.4019C274.683 30.851 274.922 30.2628 274.937 29.6374V29.548C274.341 29.1608 273.678 28.8705 272.949 28.6769C272.219 28.4684 271.489 28.3642 270.76 28.3642C269.673 28.3642 268.802 28.5875 268.146 29.0343C267.491 29.4661 267.164 30.0468 267.164 30.7765C267.164 31.2381 267.298 31.6625 267.566 32.0497C267.834 32.4219 268.206 32.7123 268.682 32.9208C269.159 33.1292 269.695 33.2335 270.291 33.2335Z" fill="#A3A0A0"/>
<path d="M309.58 38.2591H302.254V27.158C302.254 25.5349 301.904 24.2767 301.204 23.3832C300.504 22.4898 299.536 22.043 298.3 22.043C297.02 22.043 296.007 22.5047 295.262 23.4279C294.533 24.3511 294.168 25.6243 294.168 27.2474V38.2591H286.842V15.9229H292.694L292.94 19.4967C293.729 18.1863 294.764 17.1886 296.044 16.5037C297.34 15.8187 298.859 15.4762 300.601 15.4762C303.4 15.4762 305.597 16.3473 307.19 18.0895C308.783 19.8169 309.58 22.2143 309.58 25.2818V38.2591Z" fill="#A3A0A0"/>
<path d="M337.121 49.4272H329.348L333.971 38.2815L322.49 15.9229H330.799L337.433 29.9501L343.241 15.9229H351.014L337.121 49.4272Z" fill="#A3A0A0"/>
<path d="M364.125 38.7059C361.787 38.7059 359.702 38.207 357.871 37.2093C356.054 36.1968 354.625 34.8194 353.582 33.0771C352.54 31.32 352.019 29.3246 352.019 27.091C352.019 24.8574 352.54 22.8695 353.582 21.1273C354.625 19.3701 356.054 17.9927 357.871 16.9951C359.702 15.9825 361.787 15.4762 364.125 15.4762C366.433 15.4762 368.488 15.9825 370.29 16.9951C372.107 17.9927 373.529 19.3701 374.556 21.1273C375.598 22.8695 376.12 24.8574 376.12 27.091C376.12 29.3246 375.598 31.32 374.556 33.0771C373.529 34.8194 372.107 36.1968 370.29 37.2093C368.488 38.207 366.433 38.7059 364.125 38.7059ZM364.08 32.139C364.944 32.139 365.718 31.9231 366.403 31.4913C367.088 31.0594 367.624 30.4563 368.012 29.682C368.414 28.9077 368.615 28.0291 368.615 27.0463C368.615 26.0933 368.414 25.2371 368.012 24.4777C367.624 23.7183 367.088 23.1226 366.403 22.6908C365.718 22.259 364.944 22.043 364.08 22.043C363.202 22.043 362.42 22.259 361.735 22.6908C361.05 23.1226 360.507 23.7183 360.105 24.4777C359.717 25.2371 359.524 26.0933 359.524 27.0463C359.524 28.0291 359.717 28.9077 360.105 29.682C360.507 30.4563 361.05 31.0594 361.735 31.4913C362.42 31.9231 363.202 32.139 364.08 32.139Z" fill="#A3A0A0"/>
<path d="M402.141 38.2591H396.289L396.043 34.6853C395.269 35.9957 394.234 36.9934 392.939 37.6784C391.643 38.3634 390.132 38.7059 388.405 38.7059C385.59 38.7059 383.386 37.8347 381.793 36.0925C380.2 34.3503 379.403 31.9454 379.403 28.8779V15.9229H386.729V27.024C386.729 28.6471 387.079 29.9054 387.779 30.7988C388.479 31.6923 389.447 32.139 390.683 32.139C391.978 32.139 392.991 31.6774 393.721 30.7542C394.45 29.8309 394.815 28.5578 394.815 26.9347V15.9229H402.141V38.2591Z" fill="#A3A0A0"/>
<path d="M415.632 36.3606L417.174 30.2404C417.605 30.7169 418.208 31.1711 418.983 31.6029C419.757 32.0348 420.591 32.3847 421.484 32.6527C422.393 32.9059 423.242 33.0325 424.031 33.0325C424.79 33.0325 425.378 32.8984 425.795 32.6304C426.212 32.3624 426.421 32.005 426.421 31.5583C426.421 31.1413 426.257 30.7914 425.929 30.5085C425.602 30.2106 425.17 29.9426 424.634 29.7044C424.098 29.4661 423.487 29.2279 422.802 28.9896C421.849 28.6322 420.852 28.2078 419.809 27.7164C418.767 27.2101 417.888 26.5326 417.174 25.6838C416.474 24.8202 416.124 23.6736 416.124 22.2441C416.124 20.8592 416.481 19.6605 417.196 18.6479C417.926 17.6354 418.953 16.8536 420.278 16.3026C421.604 15.7517 423.16 15.4762 424.947 15.4762C427.88 15.4762 430.821 16.2133 433.769 17.6875L431.714 23.3609C431.238 22.9737 430.627 22.6089 429.883 22.2664C429.138 21.909 428.371 21.6261 427.582 21.4176C426.808 21.1943 426.123 21.0826 425.527 21.0826C424.917 21.0826 424.448 21.2017 424.12 21.44C423.793 21.6782 423.629 21.9984 423.629 22.4004C423.629 22.7578 423.77 23.0779 424.053 23.3609C424.336 23.6289 424.746 23.8821 425.282 24.1203C425.818 24.3586 426.436 24.6117 427.136 24.8797C428.148 25.2371 429.176 25.6689 430.218 26.1752C431.26 26.6815 432.139 27.3665 432.854 28.2302C433.583 29.0938 433.948 30.2479 433.948 31.6923C433.948 33.1069 433.561 34.3428 432.787 35.4001C432.012 36.4425 430.918 37.254 429.503 37.8347C428.103 38.4155 426.451 38.7059 424.545 38.7059C421.358 38.7059 418.387 37.9241 415.632 36.3606Z" fill="#A3A0A0"/>
<path d="M457.915 38.2591H451.504L451.125 35.7128C450.306 36.6658 449.308 37.4029 448.132 37.9241C446.955 38.4453 445.66 38.7059 444.245 38.7059C442.696 38.7059 441.319 38.408 440.113 37.8124C438.907 37.2168 437.954 36.3978 437.254 35.3554C436.569 34.2982 436.226 33.0995 436.226 31.7593C436.226 30.3447 436.599 29.1013 437.343 28.0291C438.103 26.957 439.145 26.1157 440.47 25.5051C441.796 24.8946 443.307 24.5894 445.004 24.5894C445.972 24.5894 446.925 24.6936 447.864 24.9021C448.817 25.1105 449.725 25.4009 450.589 25.7732V25.3041C450.589 24.5149 450.35 23.8299 449.874 23.2492C449.397 22.6684 448.75 22.2143 447.931 21.8867C447.112 21.5442 446.181 21.3729 445.139 21.3729C444.111 21.3729 443.113 21.5367 442.145 21.8643C441.178 22.1771 440.292 22.6312 439.487 23.2269L437.567 17.7545C439.145 16.9951 440.716 16.4292 442.279 16.0569C443.858 15.6698 445.377 15.4762 446.836 15.4762C449.085 15.4762 451.035 15.9155 452.688 16.794C454.356 17.6726 455.644 18.916 456.552 20.5242C457.461 22.1175 457.915 24.0086 457.915 26.1976V38.2591ZM445.898 33.2335C446.657 33.2335 447.387 33.0697 448.087 32.7421C448.802 32.3996 449.382 31.9529 449.829 31.4019C450.291 30.851 450.529 30.2628 450.544 29.6374V29.548C449.948 29.1608 449.286 28.8705 448.556 28.6769C447.826 28.4684 447.097 28.3642 446.367 28.3642C445.28 28.3642 444.409 28.5875 443.754 29.0343C443.098 29.4661 442.771 30.0468 442.771 30.7765C442.771 31.2381 442.905 31.6625 443.173 32.0497C443.441 32.4219 443.813 32.7123 444.29 32.9208C444.766 33.1292 445.302 33.2335 445.898 33.2335Z" fill="#A3A0A0"/>
<path d="M485.143 15.9229L476.096 38.2591H469.016L459.992 15.9229H467.832L472.567 30.9105L477.325 15.9229H485.143Z" fill="#A3A0A0"/>
<path d="M508.551 35.8245C505.766 37.7454 502.736 38.7059 499.46 38.7059C496.988 38.7059 494.762 38.1847 492.782 37.1423C490.816 36.0851 489.26 34.6556 488.113 32.8538C486.967 31.0371 486.393 28.997 486.393 26.7336C486.393 24.5745 486.907 22.6536 487.935 20.9709C488.962 19.2733 490.362 17.9332 492.134 16.9504C493.921 15.9676 495.939 15.4762 498.187 15.4762C500.525 15.4762 502.58 16.0197 504.352 17.1067C506.124 18.1938 507.501 19.7052 508.484 21.641C509.482 23.5619 509.981 25.7955 509.981 28.3419V29.0566H494.256C494.524 29.7863 494.926 30.434 495.462 30.9999C496.013 31.5657 496.698 32.0199 497.517 32.3624C498.336 32.69 499.274 32.8538 500.331 32.8538C502.52 32.8538 504.575 32.1465 506.496 30.7318L508.551 35.8245ZM493.943 25.7508H503.235C503.146 24.917 502.893 24.1799 502.476 23.5396C502.059 22.8993 501.508 22.4004 500.823 22.043C500.153 21.6857 499.401 21.507 498.567 21.507C497.718 21.507 496.966 21.7005 496.311 22.0877C495.67 22.46 495.142 22.9663 494.725 23.6066C494.323 24.232 494.062 24.9467 493.943 25.7508Z" fill="#A3A0A0"/>
<path d="M551.839 38.2591H543.485L540.402 25.5722L537.32 38.2591H528.966L521.729 15.9229H529.48L533.032 30.7318L537.231 15.9229H543.574L547.773 30.7988L551.325 15.9229H559.076L551.839 38.2591Z" fill="#A3A0A0"/>
<path d="M565.642 11.143C564.719 11.143 563.937 10.8228 563.297 10.1825C562.672 9.52731 562.359 8.73809 562.359 7.81486C562.359 6.90652 562.672 6.1322 563.297 5.4919C563.937 4.8367 564.719 4.5091 565.642 4.5091C566.581 4.5091 567.37 4.8367 568.01 5.4919C568.65 6.1322 568.971 6.90652 568.971 7.81486C568.971 8.73809 568.65 9.52731 568.01 10.1825C567.37 10.8228 566.581 11.143 565.642 11.143ZM569.328 38.2591H562.002V15.9229H569.328V38.2591Z" fill="#A3A0A0"/>
<path d="M590.793 37.6561C589.006 38.3559 587.271 38.7059 585.589 38.7059C583.817 38.7059 582.246 38.3336 580.876 37.589C579.521 36.8296 578.463 35.7873 577.704 34.462C576.945 33.1218 576.565 31.5657 576.565 29.7937V22.4674H572.656V15.9229H576.967V10.3389H583.891V15.9229H589.922V22.4674H583.891V28.4759C583.891 29.6522 584.219 30.5606 584.874 31.2009C585.529 31.8412 586.318 32.1613 587.242 32.1613C588.135 32.1613 589.006 31.8784 589.855 31.3126L590.793 37.6561Z" fill="#A3A0A0"/>
<path d="M594.099 38.2591V4.7548H601.425V18.3129C603.018 16.4218 605.222 15.4762 608.037 15.4762C610.806 15.4762 612.965 16.3399 614.514 18.0672C616.063 19.7945 616.837 22.1994 616.837 25.2818V38.2591H609.511V27.2697C609.511 25.6019 609.161 24.3139 608.461 23.4055C607.776 22.4823 606.801 22.0207 605.535 22.0207C604.239 22.0207 603.227 22.4823 602.497 23.4055C601.782 24.3288 601.425 25.6168 601.425 27.2697V38.2591H594.099Z" fill="#A3A0A0"/>
<path d="M804.729 13.1085L801.96 7.18945C804.804 5.11963 807.923 4.08472 811.318 4.08472C813.284 4.08472 814.982 4.41976 816.411 5.08985C817.841 5.74504 818.943 6.69061 819.717 7.92655C820.491 9.14759 820.878 10.6143 820.878 12.3268C820.878 13.4138 820.715 14.3668 820.387 15.1858C820.074 16.0048 819.628 16.7568 819.047 17.4418C818.481 18.1268 817.826 18.8341 817.081 19.5637C816.366 20.2785 815.659 21.0454 814.959 21.8643C814.274 22.6684 813.708 23.6364 813.262 24.7681C812.815 25.8998 812.592 27.2995 812.592 28.9673H806.36C806.36 26.8528 806.583 25.1031 807.03 23.7183C807.492 22.3185 808.057 21.1645 808.727 20.2561C809.398 19.3329 810.045 18.5214 810.671 17.8215C811.266 17.1663 811.78 16.5334 812.212 15.9229C812.644 15.2975 812.86 14.5753 812.86 13.7563C812.86 12.7884 812.547 12.0066 811.922 11.411C811.296 10.8154 810.455 10.5175 809.398 10.5175C808.489 10.5175 807.618 10.7484 806.784 11.21C805.965 11.6716 805.28 12.3044 804.729 13.1085ZM809.487 38.7059C808.489 38.7059 807.685 38.408 807.075 37.8124C806.479 37.2019 806.181 36.3978 806.181 35.4001C806.181 34.4173 806.479 33.6206 807.075 33.0101C807.685 32.3996 808.489 32.0943 809.487 32.0943C810.47 32.0943 811.266 32.3996 811.877 33.0101C812.487 33.6206 812.793 34.4173 812.793 35.4001C812.793 36.3978 812.487 37.2019 811.877 37.8124C811.266 38.408 810.47 38.7059 809.487 38.7059Z" fill="#A3A0A0"/>
<path d="M668.772 11.918H677.577V17.0389C679.199 13.1991 681.905 11.5245 685.889 11.5747V19.7969C680.528 19.6495 677.577 21.3241 677.577 25.4587V37.6697H668.772V11.918Z" fill="#78A6D8"/>
<path d="M643.986 11.9967H652.791V22.0593L659.727 11.8678H668.876L660.464 23.4374L669.563 37.6178H659.727L652.791 26.3428V37.6178H643.986V11.9967Z" fill="#78A6D8"/>
<path d="M686.667 4.57833C686.667 1.96934 688.733 3.05176e-05 691.487 3.05176e-05C694.241 3.05176e-05 696.357 1.96934 696.357 4.57833C696.357 7.18732 694.242 9.10806 691.487 9.10806C688.732 9.10806 686.667 7.18732 686.667 4.57833ZM687.111 11.5697H695.915V37.3197H687.111V11.5697Z" fill="#78A6D8"/>
<path d="M700.118 29.0489V17.5764H697.019V11.5697H700.118V6.20267H708.922V11.5697H713.988V17.5764H708.922V28.2117C708.922 30.0822 709.857 30.9195 711.529 30.9195C712.512 30.9195 713.25 30.7721 714.036 30.4757V37.1723C712.905 37.4671 711.232 37.9108 709.166 37.9108C703.363 37.9108 700.116 35.1042 700.116 29.0489H700.118Z" fill="#78A6D8"/>
<path d="M715.299 30.5293C715.299 24.474 720.415 22.1095 728.974 22.1095H731.433V21.5184C731.433 19.0567 730.842 17.4324 728.039 17.4324C725.628 17.4324 724.743 18.8608 724.545 20.4852H716.283C716.676 14.2808 721.546 11.2298 728.579 11.2298C735.612 11.2298 740.187 14.1351 740.187 20.9775V37.668H731.629V34.6638C730.399 36.5343 728.135 38.2575 724.005 38.2575C719.381 38.2575 715.299 35.9918 715.299 30.5276V30.5293ZM731.433 28.6588V27.083H729.121C725.579 27.083 724.005 27.7729 724.005 29.8896C724.005 31.3666 724.989 32.3027 727.055 32.3027C729.562 32.3027 731.433 30.8742 731.433 28.6588Z" fill="#78A6D8"/>
<path d="M741.552 33.2371C741.552 30.4807 743.667 28.2652 746.569 28.2652C749.472 28.2652 751.734 30.4807 751.734 33.2371C751.734 35.9934 749.52 38.2106 746.569 38.2106C743.618 38.2106 741.552 35.9951 741.552 33.2371Z" fill="#78A6D8"/>
<path d="M752.865 30.5293C752.865 24.474 757.98 22.1095 766.539 22.1095H768.998V21.5184C768.998 19.0567 768.408 17.4324 765.604 17.4324C763.193 17.4324 762.308 18.8608 762.111 20.4852H753.848C754.241 14.2808 759.111 11.2298 766.144 11.2298C773.177 11.2298 777.753 14.1351 777.753 20.9775V37.668H769.194V34.6638C767.964 36.5343 765.701 38.2575 761.57 38.2575C756.946 38.2575 752.865 35.9918 752.865 30.5276V30.5293ZM768.998 28.6588V27.083H766.686C763.145 27.083 761.57 27.7729 761.57 29.8896C761.57 31.3666 762.554 32.3027 764.62 32.3027C767.128 32.3027 768.998 30.8742 768.998 28.6588Z" fill="#78A6D8"/>
<path d="M778.569 4.92664C778.569 2.31765 780.635 0.348343 783.389 0.348343C786.142 0.348343 788.258 2.31765 788.258 4.92664C788.258 7.53563 786.144 9.45638 783.389 9.45638C780.633 9.45638 778.569 7.53563 778.569 4.92664ZM779.012 11.918H787.817V37.668H779.012V11.918Z" fill="#78A6D8"/>
<path d="M633.464 11.9515H627.57C626.682 11.9515 626.135 12.9261 626.598 13.6847L632.155 22.8061C632.358 23.1377 632.376 23.548 632.207 23.8979L626.335 36.0135C625.969 36.7704 626.519 37.6513 627.359 37.6513H633.425C633.863 37.6513 634.263 37.4001 634.452 37.0032L640.716 23.9164C640.881 23.5697 640.861 23.1645 640.664 22.8346L634.439 12.5008C634.233 12.1591 633.863 11.9498 633.464 11.9498V11.9515Z" fill="#FFCD00"/>
</svg>
