<svg width="144" height="34" viewBox="0 0 144 34" fill="none" xmlns="http://www.w3.org/2000/svg">
<g clip-path="url(#clip0_211_3958)">
<path d="M37.8152 10.5912H45.6397V15.142C47.0817 11.7297 49.4857 10.2415 53.027 10.2862V17.593C48.2622 17.4621 45.6397 18.9502 45.6397 22.6245V33.4762H37.8152V10.5912Z" fill="#70A8DC"/>
<path d="M15.7886 10.6612H23.613V19.6035L29.7768 10.5466H37.9074L30.4324 20.8283L38.5184 33.43H29.7768L23.613 23.4103V33.43H15.7886V10.6612Z" fill="#70A8DC"/>
<path d="M53.7183 4.06863C53.7183 1.75008 55.5543 0 58.0014 0C60.4485 0 62.3291 1.75008 62.3291 4.06863C62.3291 6.38718 60.45 8.0941 58.0014 8.0941C55.5528 8.0941 53.7183 6.38718 53.7183 4.06863ZM54.1122 10.2817H61.9366V33.1651H54.1122V10.2817Z" fill="#70A8DC"/>
<path d="M65.6712 25.8151V15.6197H62.9178V10.2817H65.6712V5.51215H73.4956V10.2817H77.9973V15.6197H73.4956V25.071C73.4956 26.7333 74.3266 27.4774 75.8118 27.4774C76.686 27.4774 77.3416 27.3464 78.0404 27.083V33.0342C77.0354 33.2961 75.5487 33.6905 73.7126 33.6905C68.5553 33.6905 65.6697 31.1963 65.6697 25.8151H65.6712Z" fill="#70A8DC"/>
<path d="M79.1628 27.1307C79.1628 21.7495 83.7091 19.6482 91.315 19.6482H93.5004V19.1229C93.5004 16.9353 92.9756 15.4918 90.4839 15.4918C88.3416 15.4918 87.5552 16.7612 87.3797 18.2047H80.037C80.3864 12.691 84.7141 9.97961 90.9641 9.97961C97.2141 9.97961 101.28 12.5616 101.28 18.6422V33.4747H93.6743V30.8049C92.5816 32.4672 90.5702 33.9985 86.8995 33.9985C82.7904 33.9985 79.1628 31.985 79.1628 27.1292V27.1307ZM93.5004 25.4684V24.068H91.4458C88.2985 24.068 86.8995 24.6812 86.8995 26.5622C86.8995 27.8747 87.7737 28.7066 89.6098 28.7066C91.8383 28.7066 93.5004 27.4372 93.5004 25.4684Z" fill="#70A8DC"/>
<path d="M102.493 29.537C102.493 27.0875 104.373 25.1187 106.952 25.1187C109.531 25.1187 111.541 27.0875 111.541 29.537C111.541 31.9865 109.574 33.9568 106.952 33.9568C104.329 33.9568 102.493 31.988 102.493 29.537Z" fill="#70A8DC"/>
<path d="M112.546 27.1307C112.546 21.7495 117.093 19.6482 124.698 19.6482H126.884V19.1229C126.884 16.9353 126.359 15.4918 123.867 15.4918C121.725 15.4918 120.939 16.7612 120.763 18.2047H113.42C113.77 12.691 118.098 9.97961 124.348 9.97961C130.598 9.97961 134.664 12.5616 134.664 18.6422V33.4747H127.058V30.8049C125.965 32.4672 123.954 33.9985 120.283 33.9985C116.174 33.9985 112.546 31.985 112.546 27.1292V27.1307ZM126.884 25.4684V24.068H124.829C121.682 24.068 120.283 24.6812 120.283 26.5622C120.283 27.8747 121.157 28.7066 122.993 28.7066C125.222 28.7066 126.884 27.4372 126.884 25.4684Z" fill="#70A8DC"/>
<path d="M135.389 4.37817C135.389 2.05962 137.225 0.30954 139.672 0.30954C142.119 0.30954 144 2.05962 144 4.37817C144 6.69672 142.121 8.40364 139.672 8.40364C137.224 8.40364 135.389 6.69672 135.389 4.37817ZM135.783 10.5912H143.608V33.4747H135.783V10.5912Z" fill="#70A8DC"/>
</g>
<path d="M6.43732 10.621H1.19974C0.410307 10.621 -0.0758375 11.4871 0.335973 12.1612L5.27473 20.2673C5.45462 20.5619 5.47097 20.9265 5.32082 21.2375L0.102564 32.0044C-0.223019 32.677 0.266099 33.4598 1.01241 33.4598H6.40312C6.79263 33.4598 7.14795 33.2366 7.31594 32.8839L12.8821 21.2539C13.0293 20.9459 13.0114 20.5857 12.836 20.2925L7.30405 11.1091C7.12119 10.8055 6.79263 10.6195 6.43732 10.6195V10.621Z" fill="#70A8DC"/>
<defs>
<clipPath id="clip0_211_3958">
<rect width="144" height="34" fill="white"/>
</clipPath>
</defs>
</svg>
