<svg width="84" height="20" viewBox="0 0 84 20" fill="none" xmlns="http://www.w3.org/2000/svg">
<g clip-path="url(#clip0_211_1635)">
<path d="M21.9353 6.14384H26.474V8.78359C27.3105 6.80421 28.7049 5.94098 30.7591 5.96687V10.2053C27.9952 10.1294 26.474 10.9926 26.474 13.1239V19.4186H21.9353V6.14384Z" fill="#78A6D8"/>
<path d="M9.1584 6.18414H13.6971V11.3713L17.2725 6.11768H21.9888L17.6528 12.0817L22.3432 19.3916H17.2725L13.6971 13.5794V19.3916H9.1584V6.18414Z" fill="#78A6D8"/>
<path d="M31.1601 2.36007C31.1601 1.01516 32.2251 0 33.6446 0C35.0641 0 36.155 1.01516 36.155 2.36007C36.155 3.70498 35.0649 4.69511 33.6446 4.69511C32.2243 4.69511 31.1601 3.70498 31.1601 2.36007ZM31.3886 5.96406H35.9273V19.2379H31.3886V5.96406Z" fill="#78A6D8"/>
<path d="M38.0936 14.9743V9.06033H36.4965V5.96392H38.0936V3.19727H42.6323V5.96392H45.2435V9.06033H42.6323V14.5427C42.6323 15.5069 43.1143 15.9385 43.9758 15.9385C44.4829 15.9385 44.8632 15.8626 45.2685 15.7098V19.1618C44.6856 19.3138 43.8232 19.5425 42.7582 19.5425C39.7666 19.5425 38.0927 18.0958 38.0927 14.9743H38.0936Z" fill="#78A6D8"/>
<path d="M45.9196 15.7378C45.9196 12.6164 48.5567 11.3975 52.9686 11.3975H54.2363V11.0927C54.2363 9.8238 53.9319 8.98647 52.4866 8.98647C51.2439 8.98647 50.7877 9.7228 50.6859 10.5601H46.4267C46.6293 7.36187 49.1397 5.78906 52.7651 5.78906C56.3905 5.78906 58.7491 7.28677 58.7491 10.8139V19.4177H54.3372V17.8691C53.7034 18.8333 52.5366 19.7216 50.4074 19.7216C48.0238 19.7216 45.9196 18.5536 45.9196 15.7369V15.7378ZM54.2363 14.7736V13.9613H53.0445C51.2189 13.9613 50.4074 14.3169 50.4074 15.408C50.4074 16.1694 50.9145 16.652 51.9795 16.652C53.2722 16.652 54.2363 15.9156 54.2363 14.7736Z" fill="#78A6D8"/>
<path d="M59.4528 17.1332C59.4528 15.7124 60.5429 14.5703 62.0391 14.5703C63.5353 14.5703 64.7012 15.7124 64.7012 17.1332C64.7012 18.5541 63.5603 19.697 62.0391 19.697C60.5179 19.697 59.4528 18.555 59.4528 17.1332Z" fill="#78A6D8"/>
<path d="M65.2842 15.7378C65.2842 12.6164 67.9213 11.3975 72.3332 11.3975H73.6009V11.0927C73.6009 9.8238 73.2965 8.98647 71.8512 8.98647C70.6085 8.98647 70.1523 9.7228 70.0505 10.5601H65.7913C65.9939 7.36187 68.5043 5.78906 72.1297 5.78906C75.7551 5.78906 78.1137 7.28677 78.1137 10.8139V19.4177H73.7018V17.8691C73.068 18.8333 71.9012 19.7216 69.772 19.7216C67.3884 19.7216 65.2842 18.5536 65.2842 15.7369V15.7378ZM73.6009 14.7736V13.9613H72.4091C70.5835 13.9613 69.772 14.3169 69.772 15.408C69.772 16.1694 70.2791 16.652 71.3441 16.652C72.6368 16.652 73.6009 15.9156 73.6009 14.7736Z" fill="#78A6D8"/>
<path d="M78.5345 2.53976C78.5345 1.19485 79.5996 0.179688 81.019 0.179688C82.4385 0.179688 83.5294 1.19485 83.5294 2.53976C83.5294 3.88467 82.4394 4.8748 81.019 4.8748C79.5987 4.8748 78.5345 3.88467 78.5345 2.53976ZM78.7631 6.14374H83.3017V19.4176H78.7631V6.14374Z" fill="#78A6D8"/>
<path d="M3.73406 6.00083H0.695925C0.238005 6.00083 -0.0439907 6.48447 0.194887 6.86092L3.05969 11.3874C3.16404 11.5519 3.17352 11.7555 3.08642 11.9292L0.059494 17.9415C-0.129366 18.3171 0.154355 18.7542 0.587266 18.7542H3.71423C3.94017 18.7542 4.14628 18.6295 4.24373 18.4326L7.47245 11.9383C7.55782 11.7663 7.54747 11.5652 7.44571 11.4015L4.23683 6.2734C4.13076 6.10388 3.94017 6 3.73406 6V6.00083Z" fill="#FFCD00"/>
</g>
<defs>
<clipPath id="clip0_211_1635">
<rect width="83.5294" height="19.7222" fill="white"/>
</clipPath>
</defs>
</svg>
